<svg width="36" height="36" viewBox="0 0 36 36" fill="none" xmlns="http://www.w3.org/2000/svg">
<rect x="0.5" y="0.5" width="35" height="35" rx="17.5" fill="white"/>
<rect x="0.5" y="0.5" width="35" height="35" rx="17.5" stroke="#ECECEC"/>
<path d="M14.14 12.77L18 16.63L21.84 12.79C21.9248 12.6997 22.027 12.6275 22.1404 12.5777C22.2538 12.5278 22.3761 12.5014 22.5 12.5C22.7652 12.5 23.0196 12.6054 23.2071 12.7929C23.3947 12.9804 23.5 13.2348 23.5 13.5C23.5023 13.6226 23.4796 13.7444 23.4332 13.8579C23.3867 13.9714 23.3176 14.0742 23.23 14.16L19.34 18L23.23 21.89C23.3948 22.0512 23.4915 22.2696 23.5 22.5C23.5 22.7652 23.3947 23.0196 23.2071 23.2071C23.0196 23.3946 22.7652 23.5 22.5 23.5C22.3726 23.5053 22.2454 23.484 22.1266 23.4375C22.0078 23.3911 21.9 23.3204 21.81 23.23L18 19.37L14.15 23.22C14.0655 23.3073 13.9646 23.3769 13.853 23.425C13.7414 23.4731 13.6215 23.4986 13.5 23.5C13.2348 23.5 12.9804 23.3946 12.7929 23.2071C12.6054 23.0196 12.5 22.7652 12.5 22.5C12.4977 22.3774 12.5204 22.2556 12.5669 22.1421C12.6133 22.0286 12.6824 21.9258 12.77 21.84L16.66 18L12.77 14.11C12.6052 13.9488 12.5085 13.7304 12.5 13.5C12.5 13.2348 12.6054 12.9804 12.7929 12.7929C12.9804 12.6054 13.2348 12.5 13.5 12.5C13.74 12.503 13.97 12.6 14.14 12.77Z" fill="black"/>
</svg>
