<svg width="53" height="53" viewBox="0 0 53 53" fill="none" xmlns="http://www.w3.org/2000/svg">
<rect width="53" height="53" rx="26.5" fill="#F3F2F2"/>
<path fill-rule="evenodd" clip-rule="evenodd" d="M17.7727 34C16.9047 34 16.0723 33.6614 15.4586 33.0586C14.8448 32.4558 14.5 31.6382 14.5 30.7857V22.2143C14.5 21.3618 14.8448 20.5442 15.4586 19.9414C16.0723 19.3386 16.9047 19 17.7727 19H35.2273C36.0953 19 36.9277 19.3386 37.5414 19.9414C38.1552 20.5442 38.5 21.3618 38.5 22.2143V30.7857C38.5 31.6382 38.1552 32.4558 37.5414 33.0586C36.9277 33.6614 36.0953 34 35.2273 34H17.7727ZM24.3182 27.5714C24.0289 27.5714 23.7514 27.6843 23.5468 27.8852C23.3422 28.0862 23.2273 28.3587 23.2273 28.6429C23.2273 28.927 23.3422 29.1995 23.5468 29.4005C23.7514 29.6014 24.0289 29.7143 24.3182 29.7143H28.6818C28.9711 29.7143 29.2486 29.6014 29.4532 29.4005C29.6578 29.1995 29.7727 28.927 29.7727 28.6429C29.7727 28.3587 29.6578 28.0862 29.4532 27.8852C29.2486 27.6843 28.9711 27.5714 28.6818 27.5714H24.3182ZM27.5909 24.3571C27.5909 24.073 27.7058 23.8005 27.9104 23.5995C28.115 23.3986 28.3925 23.2857 28.6818 23.2857H28.6927C28.9821 23.2857 29.2595 23.3986 29.4641 23.5995C29.6687 23.8005 29.7836 24.073 29.7836 24.3571C29.7836 24.6413 29.6687 24.9138 29.4641 25.1148C29.2595 25.3157 28.9821 25.4286 28.6927 25.4286H28.6818C28.3925 25.4286 28.115 25.3157 27.9104 25.1148C27.7058 24.9138 27.5909 24.6413 27.5909 24.3571ZM33.0455 23.2857C32.7561 23.2857 32.4787 23.3986 32.2741 23.5995C32.0695 23.8005 31.9545 24.073 31.9545 24.3571C31.9545 24.6413 32.0695 24.9138 32.2741 25.1148C32.4787 25.3157 32.7561 25.4286 33.0455 25.4286H33.0564C33.3457 25.4286 33.6232 25.3157 33.8278 25.1148C34.0323 24.9138 34.1473 24.6413 34.1473 24.3571C34.1473 24.073 34.0323 23.8005 33.8278 23.5995C33.6232 23.3986 33.3457 23.2857 33.0564 23.2857H33.0455ZM23.2273 24.3571C23.2273 24.073 23.3422 23.8005 23.5468 23.5995C23.7514 23.3986 24.0289 23.2857 24.3182 23.2857H24.3291C24.6184 23.2857 24.8959 23.3986 25.1005 23.5995C25.3051 23.8005 25.42 24.073 25.42 24.3571C25.42 24.6413 25.3051 24.9138 25.1005 25.1148C24.8959 25.3157 24.6184 25.4286 24.3291 25.4286H24.3182C24.0289 25.4286 23.7514 25.3157 23.5468 25.1148C23.3422 24.9138 23.2273 24.6413 23.2273 24.3571ZM19.9545 23.2857C19.6652 23.2857 19.3877 23.3986 19.1832 23.5995C18.9786 23.8005 18.8636 24.073 18.8636 24.3571C18.8636 24.6413 18.9786 24.9138 19.1832 25.1148C19.3877 25.3157 19.6652 25.4286 19.9545 25.4286H19.9655C20.2548 25.4286 20.5323 25.3157 20.7368 25.1148C20.9414 24.9138 21.0564 24.6413 21.0564 24.3571C21.0564 24.073 20.9414 23.8005 20.7368 23.5995C20.5323 23.3986 20.2548 23.2857 19.9655 23.2857H19.9545ZM18.8636 28.6429C18.8636 28.3587 18.9786 28.0862 19.1832 27.8852C19.3877 27.6843 19.6652 27.5714 19.9545 27.5714H19.9655C20.2548 27.5714 20.5323 27.6843 20.7368 27.8852C20.9414 28.0862 21.0564 28.3587 21.0564 28.6429C21.0564 28.927 20.9414 29.1995 20.7368 29.4005C20.5323 29.6014 20.2548 29.7143 19.9655 29.7143H19.9545C19.6652 29.7143 19.3877 29.6014 19.1832 29.4005C18.9786 29.1995 18.8636 28.927 18.8636 28.6429ZM33.0455 27.5714C32.7561 27.5714 32.4787 27.6843 32.2741 27.8852C32.0695 28.0862 31.9545 28.3587 31.9545 28.6429C31.9545 28.927 32.0695 29.1995 32.2741 29.4005C32.4787 29.6014 32.7561 29.7143 33.0455 29.7143H33.0564C33.3457 29.7143 33.6232 29.6014 33.8278 29.4005C34.0323 29.1995 34.1473 28.927 34.1473 28.6429C34.1473 28.3587 34.0323 28.0862 33.8278 27.8852C33.6232 27.6843 33.3457 27.5714 33.0564 27.5714H33.0455Z" fill="black"/>
</svg>
