<svg width="18" height="17" viewBox="0 0 18 17" fill="none" xmlns="http://www.w3.org/2000/svg">
<path d="M1.45831 11.106V5.46098C1.45831 4.91355 1.81765 4.46911 2.26041 4.46911H5.13672C5.24286 4.46867 5.34783 4.44266 5.44529 4.39267C5.54275 4.34268 5.63069 4.26973 5.7038 4.17823L8.11008 0.947039C8.6154 0.321401 9.47925 0.764879 9.47925 1.64897V14.919C9.47925 15.8098 8.60497 16.2494 8.10286 15.6114L5.7046 12.3983C5.63128 12.3042 5.54246 12.2291 5.44365 12.1775C5.34485 12.126 5.23819 12.0992 5.1303 12.0988H2.26041C1.81765 12.0988 1.45831 11.6544 1.45831 11.106Z" stroke="white" stroke-linecap="round" stroke-linejoin="round"/>
<path d="M12.6876 4.94617C13.7568 6.64187 13.7568 9.92647 12.6876 11.6222" stroke="white" stroke-linecap="round" stroke-linejoin="round"/>
<path d="M15.0939 1.60797C18.2927 5.23972 18.3119 11.3521 15.0939 14.96" stroke="white" stroke-linecap="round" stroke-linejoin="round"/>
</svg>
